<?xml version="1.0" encoding="utf-8"?>
<svg version="1.1" xmlns:xlink="http://www.w3.org/1999/xlink" width="72px" height="68px" xmlns="http://www.w3.org/2000/svg">
  <g transform="matrix(1 0 0 1 -122 -289 )">
    <path d="M 158 289  C 178.16 289  194 303.96  194 323  C 194 342.04  178.16 357  158 357  C 137.84 357  122 342.04  122 323  C 122 303.96  137.84 289  158 289  Z " fill-rule="nonzero" fill="#ffffff" stroke="none" />
    <path d="M 158 289.5  C 177.88 289.5  193.5 304.24  193.5 323  C 193.5 341.76  177.88 356.5  158 356.5  C 138.12 356.5  122.5 341.76  122.5 323  C 122.5 304.24  138.12 289.5  158 289.5  Z " stroke-width="1" stroke="#797979" fill="none" />
  </g>
</svg>