<?xml version="1.0" encoding="utf-8"?>
<svg version="1.1" xmlns:xlink="http://www.w3.org/1999/xlink" width="28px" height="28px" xmlns="http://www.w3.org/2000/svg">
  <g transform="matrix(1 0 0 1 -23 -238 )">
    <path d="M 37 239  C 44.28 239  50 244.72  50 252  C 50 259.28  44.28 265  37 265  C 29.72 265  24 259.28  24 252  C 24 244.72  29.72 239  37 239  Z " fill-rule="nonzero" fill="#1890ff" stroke="none" />
    <path d="M 37 239  C 44.28 239  50 244.72  50 252  C 50 259.28  44.28 265  37 265  C 29.72 265  24 259.28  24 252  C 24 244.72  29.72 239  37 239  Z " stroke-width="2" stroke="#108ee9" fill="none" />
  </g>
</svg>