<?xml version="1.0" encoding="utf-8"?>
<svg version="1.1" xmlns:xlink="http://www.w3.org/1999/xlink" width="28px" height="28px" xmlns="http://www.w3.org/2000/svg">
  <g transform="matrix(1 0 0 1 -23 -554 )">
    <path d="M 37 555  C 44.28 555  50 560.72  50 568  C 50 575.28  44.28 581  37 581  C 29.72 581  24 575.28  24 568  C 24 560.72  29.72 555  37 555  Z " fill-rule="nonzero" fill="#ffffff" stroke="none" fill-opacity="0" />
    <path d="M 37 555  C 44.28 555  50 560.72  50 568  C 50 575.28  44.28 581  37 581  C 29.72 581  24 575.28  24 568  C 24 560.72  29.72 555  37 555  Z " stroke-width="2" stroke="#cccccc" fill="none" />
  </g>
</svg>