<?xml version="1.0" encoding="utf-8"?>
<svg version="1.1" xmlns:xlink="http://www.w3.org/1999/xlink" width="28px" height="28px" xmlns="http://www.w3.org/2000/svg">
  <g transform="matrix(1 0 0 1 -23 -120 )">
    <path d="M 37 121  C 44.28 121  50 126.72  50 134  C 50 141.28  44.28 147  37 147  C 29.72 147  24 141.28  24 134  C 24 126.72  29.72 121  37 121  Z " fill-rule="nonzero" fill="#ffffff" stroke="none" />
    <path d="M 37 121  C 44.28 121  50 126.72  50 134  C 50 141.28  44.28 147  37 147  C 29.72 147  24 141.28  24 134  C 24 126.72  29.72 121  37 121  Z " stroke-width="2" stroke="#1890ff" fill="none" />
  </g>
</svg>