<?xml version="1.0" encoding="utf-8"?>
<svg version="1.1" xmlns:xlink="http://www.w3.org/1999/xlink" width="12px" height="12px" viewBox="342 846.5  12 12" xmlns="http://www.w3.org/2000/svg">
  <path d="M 348 846.5  C 351.36 846.5  354 849.14  354 852.5  C 354 855.86  351.36 858.5  348 858.5  C 344.64 858.5  342 855.86  342 852.5  C 342 849.14  344.64 846.5  348 846.5  Z " fill-rule="nonzero" fill="#ffffff" stroke="none" />
  <path d="M 348 847  C 351.08 847  353.5 849.42  353.5 852.5  C 353.5 855.58  351.08 858  348 858  C 344.92 858  342.5 855.58  342.5 852.5  C 342.5 849.42  344.92 847  348 847  Z " stroke-width="1" stroke="#797979" fill="none" />
  <path d="M 348 855.5  C 346.32 855.5  345 854.18  345 852.5  C 345 850.82  346.32 849.5  348 849.5  C 349.68 849.5  351 850.82  351 852.5  C 351 854.18  349.68 855.5  348 855.5  " fill-rule="nonzero" fill="#797979" stroke="none" />
</svg>