<?xml version="1.0" encoding="utf-8"?>
<svg version="1.1" xmlns:xlink="http://www.w3.org/1999/xlink" width="10px" height="10px" xmlns="http://www.w3.org/2000/svg">
  <g transform="matrix(1 0 0 1 -1799 -212 )">
    <path d="M 1804 213  C 1806.24 213  1808 214.76  1808 217  C 1808 219.24  1806.24 221  1804 221  C 1801.76 221  1800 219.24  1800 217  C 1800 214.76  1801.76 213  1804 213  Z " fill-rule="nonzero" fill="#ffffff" stroke="none" />
    <path d="M 1804 213  C 1806.24 213  1808 214.76  1808 217  C 1808 219.24  1806.24 221  1804 221  C 1801.76 221  1800 219.24  1800 217  C 1800 214.76  1801.76 213  1804 213  Z " stroke-width="2" stroke="#1890ff" fill="none" />
  </g>
</svg>