<?xml version="1.0" encoding="utf-8"?>
<svg version="1.1" xmlns:xlink="http://www.w3.org/1999/xlink" width="10px" height="10px" xmlns="http://www.w3.org/2000/svg">
  <g transform="matrix(1 0 0 1 -1799 -337 )">
    <path d="M 1804 338  C 1806.24 338  1808 339.76  1808 342  C 1808 344.24  1806.24 346  1804 346  C 1801.76 346  1800 344.24  1800 342  C 1800 339.76  1801.76 338  1804 338  Z " fill-rule="nonzero" fill="#ffffff" stroke="none" />
    <path d="M 1804 338  C 1806.24 338  1808 339.76  1808 342  C 1808 344.24  1806.24 346  1804 346  C 1801.76 346  1800 344.24  1800 342  C 1800 339.76  1801.76 338  1804 338  Z " stroke-width="2" stroke="#d9d9d9" fill="none" />
  </g>
</svg>