<?xml version="1.0" encoding="utf-8"?>
<svg version="1.1" xmlns:xlink="http://www.w3.org/1999/xlink" width="10px" height="10px" xmlns="http://www.w3.org/2000/svg">
  <g transform="matrix(1 0 0 1 -1799 -483 )">
    <path d="M 1804 484  C 1806.24 484  1808 485.76  1808 488  C 1808 490.24  1806.24 492  1804 492  C 1801.76 492  1800 490.24  1800 488  C 1800 485.76  1801.76 484  1804 484  Z " fill-rule="nonzero" fill="#ffffff" stroke="none" />
    <path d="M 1804 484  C 1806.24 484  1808 485.76  1808 488  C 1808 490.24  1806.24 492  1804 492  C 1801.76 492  1800 490.24  1800 488  C 1800 485.76  1801.76 484  1804 484  Z " stroke-width="2" stroke="#f5222d" fill="none" />
  </g>
</svg>