<?xml version="1.0" encoding="utf-8"?>
<svg version="1.1" xmlns:xlink="http://www.w3.org/1999/xlink" width="50px" height="42px" xmlns="http://www.w3.org/2000/svg">
  <g transform="matrix(1 0 0 1 -817 -32 )">
    <path d="M 47.9867788461538 13.9303977272727  C 49.3289262820513 16.7144886363636  50 19.6079545454545  50 22.6107954545455  C 50 25.9119318181818  49.3990384615385 29.0340909090909  48.1971153846154 31.9772727272727  L 47.5961538461538 33.4389204545455  L 42.0372596153846 34.4232954545455  C 41.5965544871795 36.0738636363636  40.6901041666667 37.4311079545455  39.3179086538462 38.4950284090909  C 37.9457131410256 39.5589488636364  36.3782051282051 40.0909090909091  34.6153846153846 40.0909090909091  L 34.6153846153846 41.0454545454545  C 34.6153846153846 41.3238636363636  34.5252403846154 41.5525568181818  34.3449519230769 41.7315340909091  C 34.1646634615385 41.9105113636364  33.9342948717949 42  33.6538461538462 42  L 31.7307692307692 42  C 31.4503205128205 42  31.2199519230769 41.9105113636364  31.0396634615385 41.7315340909091  C 30.859375 41.5525568181818  30.7692307692308 41.3238636363636  30 41.0454545454545  L 30 23.8636363636364  C 30.7692307692308 23.5852272727273  30.859375 23.3565340909091  31.0396634615385 23.1775568181818  C 31.2199519230769 22.9985795454545  31.4503205128205 22.9090909090909  31.7307692307692 22.9090909090909  L 33.6538461538462 22.9090909090909  C 33.9342948717949 22.9090909090909  34.1646634615385 22.9985795454545  34.3449519230769 23.1775568181818  C 34.5252403846154 23.3565340909091  34.6153846153846 23.5852272727273  34.6153846153846 23.8636363636364  L 34.6153846153846 24.8181818181818  C 36.0376602564103 24.8181818181818  37.3397435897436 25.1711647727273  38.5216346153846 25.8771306818182  C 39.7035256410256 26.5830965909091  40.635016025641 27.5326704545455  41.3161057692308 28.7258522727273  L 43.359375 28.3678977272727  C 43.9403044871795 26.4786931818182  44.2307692307692 24.5596590909091  44.2307692307692 22.6107954545455  C 44.2307692307692 19.6676136363636  43.349358974359 16.8934659090909  41.5865384615385 14.2883522727273  C 39.8237179487179 11.6832386363636  37.4549278846154 9.60511363636363  34.4801682692308 8.05397727272727  C 31.5054086538462 6.50284090909091  28.3453525641026 5.72727272727273  25 5.72727272727273  C 21.6546474358974 5.72727272727273  18.4945913461538 6.50284090909091  15.5198317307692 8.05397727272727  C 12.5450721153846 9.60511363636363  10.1762820512821 11.6832386363636  8.41346153846154 14.2883522727273  C 6.65064102564103 16.8934659090909  5.76923076923077 19.6676136363636  5.76923076923077 22.6107954545455  C 5.76923076923077 24.5596590909091  6.05969551282051 26.4786931818182  6.640625 28.3678977272727  L 8.68389423076923 28.7258522727273  C 9.36498397435897 27.5326704545455  10.2964743589744 26.5830965909091  11.4783653846154 25.8771306818182  C 12.6602564102564 25.1711647727273  13.9623397435897 24.8181818181818  15.3846153846154 24.8181818181818  L 15.3846153846154 23.8636363636364  C 15.3846153846154 23.5852272727273  15.4747596153846 23.3565340909091  15.6550480769231 23.1775568181818  C 15.8353365384615 22.9985795454545  16.0657051282051 22.9090909090909  16.3461538461538 22.9090909090909  L 18.2692307692308 22.9090909090909  C 18.5496794871795 22.9090909090909  18.7800480769231 22.9985795454545  18.9603365384615 23.1775568181818  C 19.140625 23.3565340909091  19.2307692307692 23.5852272727273  20 23.8636363636364  L 20 41.0454545454545  C 19.2307692307692 41.3238636363636  19.140625 41.5525568181818  18.9603365384615 41.7315340909091  C 18.7800480769231 41.9105113636364  18.5496794871795 42  18.2692307692308 42  L 16.3461538461538 42  C 16.0657051282051 42  15.8353365384615 41.9105113636364  15.6550480769231 41.7315340909091  C 15.4747596153846 41.5525568181818  15.3846153846154 41.3238636363636  15.3846153846154 41.0454545454545  L 15.3846153846154 40.0909090909091  C 13.6217948717949 40.0909090909091  12.0542868589744 39.5589488636364  10.6820913461538 38.4950284090909  C 9.30989583333333 37.4311079545455  8.40344551282051 36.0738636363636  7.96274038461538 34.4232954545455  L 2.40384615384615 33.4389204545455  L 1.80288461538462 31.9772727272727  C 0.600961538461539 29.0340909090909  0 25.9119318181818  0 22.6107954545455  C 0 19.6079545454545  0.671073717948718 16.7144886363636  2.01322115384615 13.9303977272727  C 3.35536858974359 11.1463068181818  5.14823717948718 8.73508522727272  7.39182692307692 6.69673295454545  C 9.63541666666667 4.65838068181818  12.2996794871795 3.03267045454545  15.3846153846154 1.81960227272727  C 18.4695512820513 0.60653409090909  21.6746794871795 0  25 0  C 28.3253205128205 0  31.5304487179487 0.60653409090909  34.6153846153846 1.81960227272727  C 37.7003205128205 3.03267045454545  40.3645833333333 4.65838068181818  42.6081730769231 6.69673295454545  C 44.8517628205128 8.73508522727272  46.6446314102564 11.1463068181818  47.9867788461538 13.9303977272727  Z " fill-rule="nonzero" fill="#000000" stroke="none" transform="matrix(1 0 0 1 817 32 )" />
  </g>
</svg>