<?xml version="1.0" encoding="utf-8"?>
<svg version="1.1" xmlns:xlink="http://www.w3.org/1999/xlink" width="14px" height="14px" xmlns="http://www.w3.org/2000/svg">
  <g transform="matrix(1 0 0 1 -780 -2356 )">
    <path d="M 787 2357  C 790.36 2357  793 2359.64  793 2363  C 793 2366.36  790.36 2369  787 2369  C 783.64 2369  781 2366.36  781 2363  C 781 2359.64  783.64 2357  787 2357  Z " fill-rule="nonzero" fill="#ffffff" stroke="none" />
    <path d="M 787 2357  C 790.36 2357  793 2359.64  793 2363  C 793 2366.36  790.36 2369  787 2369  C 783.64 2369  781 2366.36  781 2363  C 781 2359.64  783.64 2357  787 2357  Z " stroke-width="2" stroke="#91d5ff" fill="none" />
  </g>
</svg>