<?xml version="1.0" encoding="utf-8"?>
<svg version="1.1" xmlns:xlink="http://www.w3.org/1999/xlink" width="18px" height="15px" xmlns="http://www.w3.org/2000/svg">
  <g transform="matrix(1 0 0 1 -171 -87 )">
    <path d="M 4.70634146341463 5.76923076923077  L 1.87024390243902 5.76923076923077  L 7.34048780487805 11.7638221153846  L 4.70634146341463 5.76923076923077  Z M 5.93560975609756 5.76923076923077  L 9 12.7283653846154  L 12.0643902439024 5.76923076923077  L 5.93560975609756 5.76923076923077  Z M 1.69463414634146 4.61538461538462  L 4.73268292682927 4.61538461538462  L 6.52390243902439 1.15384615384615  L 4.22341463414634 1.15384615384615  L 1.69463414634146 4.61538461538462  Z M 13.2936585365854 5.76923076923077  L 10.659512195122 11.7638221153846  L 16.129756097561 5.76923076923077  L 13.2936585365854 5.76923076923077  Z M 7.79707317073171 1.15384615384615  L 6.00585365853659 4.61538461538462  L 11.9941463414634 4.61538461538462  L 10.2029268292683 1.15384615384615  L 7.79707317073171 1.15384615384615  Z M 11.4760975609756 1.15384615384615  L 13.2673170731707 4.61538461538462  L 16.3053658536585 4.61538461538462  L 13.7765853658537 1.15384615384615  L 11.4760975609756 1.15384615384615  Z M 14.0575609756098 0  C 14.2507317073171 0  14.4 0.0781249999999989  14.5053658536585 0.234375  L 17.8770731707317 4.84975961538462  C 17.9590243902439 4.95793269230769  17.9970731707317 5.08263221153846  17.9912195121951 5.22385817307692  C 17.9853658536585 5.36508413461538  17.9356097560976 5.48677884615384  17.8419512195122 5.58894230769231  L 9.41268292682927 14.8197115384615  C 9.30731707317073 14.9399038461538  9.16975609756098 15  9 15  C 8.83024390243902 15  8.69268292682927 14.9399038461538  8.58731707317073 14.8197115384615  L 0.158048780487805 5.58894230769231  C 0.064390243902439 5.48677884615384  0.0146341463414634 5.36508413461538  0.00878048780487805 5.22385817307692  C 0.00292682926829268 5.08263221153846  0.0409756097560976 4.95793269230769  0.122926829268293 4.84975961538462  L 3.49463414634146 0.234375  C 3.6 0.0781249999999989  3.74926829268293 0  3.94243902439024 0  L 14.0575609756098 0  Z " fill-rule="nonzero" fill="#000000" stroke="none" transform="matrix(1 0 0 1 171 87 )" />
  </g>
</svg>