<?xml version="1.0" encoding="utf-8"?>
<svg version="1.1" xmlns:xlink="http://www.w3.org/1999/xlink" width="15px" height="24px" xmlns="http://www.w3.org/2000/svg">
  <g transform="matrix(1 0 0 1 -280 -404 )">
    <path d="M 9.814453125 6.296875  C 9.93815104166667 6.49479166666666  10 6.72916666666666  10 7  L 10 17  C 10 17.2708333333333  9.93815104166667 17.5052083333333  9.814453125 17.703125  C 9.69075520833333 17.9010416666667  9.54427083333333 18  9.375 18  C 9.24479166666667 18  9.12434895833333 17.9375  9.013671875 17.8125  L 4.638671875 12.8125  C 4.462890625 12.6145833333333  4.375 12.34375  4.375 12  C 4.375 11.65625  4.462890625 11.3854166666667  4.638671875 11.1875  L 9.013671875 6.1875  C 9.12434895833333 6.0625  9.24479166666667 6  9.375 6  C 9.54427083333333 6  9.69075520833333 6.09895833333333  9.814453125 6.296875  Z M 12.4072265625 19.8515625  C 12.4690755208333 19.7526041666667  12.5 19.6354166666667  12.5 19.5  L 12.5 4.5  C 12.5 4.36458333333333  12.4690755208333 4.24739583333333  12.4072265625 4.1484375  C 12.3453776041667 4.04947916666667  12.2721354166667 4  12.1875 4  L 2.8125 4  C 2.72786458333333 4  2.65462239583333 4.04947916666667  2.5927734375 4.1484375  C 2.53092447916667 4.24739583333333  2.5 4.36458333333333  2.5 4.5  L 2.5 19.5  C 2.5 19.6354166666667  2.53092447916667 19.7526041666667  2.5927734375 19.8515625  C 2.65462239583333 19.9505208333333  2.72786458333333 20  2.8125 20  L 12.1875 20  C 12.2721354166667 20  12.3453776041667 19.9505208333333  12.4072265625 19.8515625  Z M 14.1748046875 1.3203125  C 14.7249348958333 2.20052083333333  15 3.26041666666666  15 4.5  L 15 19.5  C 15 20.7395833333333  14.7249348958333 21.7994791666667  14.1748046875 22.6796875  C 13.6246744791667 23.5598958333333  12.9622395833333 24  12.1875 24  L 2.8125 24  C 2.03776041666667 24  1.37532552083333 23.5598958333333  0.8251953125 22.6796875  C 0.275065104166667 21.7994791666667  0 20.7395833333333  0 19.5  L 0 4.5  C 0 3.26041666666666  0.275065104166667 2.20052083333333  0.8251953125 1.3203125  C 1.37532552083333 0.440104166666665  2.03776041666667 0  2.8125 0  L 12.1875 0  C 12.9622395833333 0  13.6246744791667 0.440104166666665  14.1748046875 1.3203125  Z " fill-rule="nonzero" fill="#000000" stroke="none" transform="matrix(1 0 0 1 280 404 )" />
  </g>
</svg>