<?xml version="1.0" encoding="utf-8"?>
<svg version="1.1" xmlns:xlink="http://www.w3.org/1999/xlink" width="86px" height="65px" xmlns="http://www.w3.org/2000/svg">
  <g transform="matrix(1 0 0 1 -2081 -1226 )">
    <path d="M 84.4464516129032 8.97306397306398  C 85.4821505376344 9.99438832772166  86 11.2345679012346  86 12.6936026936027  C 86 14.1526374859708  85.4821505376344 15.3928170594837  84.4464516129032 16.4141414141414  L 44.2761290322581 56.026936026936  L 36.7303225806452 63.4680134680135  C 35.694623655914 64.4893378226712  34.4369892473118 65  32.9574193548387 65  C 31.4778494623656 65  30.2202150537634 64.4893378226712  29.1845161290323 63.4680134680135  L 21.6387096774194 56.026936026936  L 1.55354838709677 36.2205387205387  C 0.517849462365592 35.199214365881  0 33.9590347923681  0 32.5  C 0 31.0409652076319  0.517849462365592 29.800785634119  1.55354838709677 28.7794612794613  L 9.09935483870968 21.3383838383838  C 10.1350537634409 20.3170594837261  11.392688172043 19.8063973063973  12.8722580645161 19.8063973063973  C 14.3518279569893 19.8063973063973  15.6094623655914 20.3170594837261  16.6451612903226 21.3383838383838  L 32.9574193548387 37.4789562289562  L 69.3548387096774 1.53198653198653  C 70.3905376344086 0.510662177328842  71.6481720430108 0  73.1277419354839 0  C 74.607311827957 0  75.8649462365591 0.510662177328842  76.9006451612903 1.53198653198653  L 84.4464516129032 8.97306397306398  Z " fill-rule="nonzero" fill="#0cf055" stroke="none" transform="matrix(1 0 0 1 2081 1226 )" />
  </g>
</svg>