<?xml version="1.0" encoding="utf-8"?>
<svg version="1.1" xmlns:xlink="http://www.w3.org/1999/xlink" width="48px" height="48px" xmlns="http://www.w3.org/2000/svg">
  <g transform="matrix(1 0 0 1 -1571 -641 )">
    <path d="M 1595 642  C 1607.88 642  1618 652.12  1618 665  C 1618 677.88  1607.88 688  1595 688  C 1582.12 688  1572 677.88  1572 665  C 1572 652.12  1582.12 642  1595 642  Z " fill-rule="nonzero" fill="#ffffff" stroke="none" />
    <path d="M 1595 642  C 1607.88 642  1618 652.12  1618 665  C 1618 677.88  1607.88 688  1595 688  C 1582.12 688  1572 677.88  1572 665  C 1572 652.12  1582.12 642  1595 642  Z " stroke-width="2" stroke="#52c41a" fill="none" />
  </g>
</svg>