<?xml version="1.0" encoding="utf-8"?>
<svg version="1.1" xmlns:xlink="http://www.w3.org/1999/xlink" width="29px" height="27px" xmlns="http://www.w3.org/2000/svg">
  <g transform="matrix(1 0 0 1 -31 -134 )">
    <path d="M 3.87770432692308 11.28515625  C 4.97566105769231 12.26953125  6.34375 12.931640625  7.98197115384615 13.271484375  C 7.12219551282051 11.373046875  6.69230769230769 9.19921875  6.69230769230769 6.75  L 2.23076923076923 6.75  L 2.23076923076923 8.4375  C 2.23076923076923 9.3515625  2.77974759615385 10.30078125  3.87770432692308 11.28515625  Z M 25.1222956730769 11.28515625  C 26.2202524038462 10.30078125  26.7692307692308 9.3515625  26.7692307692308 8.4375  L 26.7692307692308 6.75  L 22.3076923076923 6.75  C 22.3076923076923 9.19921875  21.8778044871795 11.373046875  21.0180288461538 13.271484375  C 22.65625 12.931640625  24.0243389423077 12.26953125  25.1222956730769 11.28515625  Z M 28.5120192307692 4.9921875  C 28.8373397435897 5.3203125  29 5.71875  29 6.1875  L 29 8.4375  C 29 9.26953125  28.7589142628205 10.107421875  28.2767427884615 10.951171875  C 27.7945713141026 11.794921875  27.1439302884615 12.556640625  26.3248197115385 13.236328125  C 25.5057091346154 13.916015625  24.5007011217949 14.4873046875  23.3097956730769 14.9501953125  C 22.118890224359 15.4130859375  20.8669871794872 15.673828125  19.5540865384615 15.732421875  C 19.0661057692308 16.365234375  18.5142227564103 16.921875  17.8984375 17.40234375  C 17.4569310897436 17.80078125  17.1519431089744 18.2255859375  16.9834735576923 18.6767578125  C 16.8150040064103 19.1279296875  16.7307692307692 19.65234375  16.7307692307692 20.25  C 16.7307692307692 20.8828125  16.907952724359 21.416015625  17.2623197115385 21.849609375  C 17.6166866987179 22.283203125  18.1830929487179 22.5  18.9615384615385 22.5  C 19.8329326923077 22.5  20.6084735576923 22.7666015625  21.2881610576923 23.2998046875  C 21.9678485576923 23.8330078125  22.3076923076923 24.50390625  22.3076923076923 25.3125  L 22.3076923076923 26.4375  C 22.3076923076923 26.6015625  22.2554086538462 26.736328125  22.1508413461538 26.841796875  C 22.0462740384615 26.947265625  21.9126602564103 27  21.75 27  L 7.25 27  C 7.08733974358975 27  6.95372596153846 26.947265625  6.84915865384615 26.841796875  C 6.74459134615385 26.736328125  6.69230769230769 26.6015625  6.69230769230769 26.4375  L 6.69230769230769 25.3125  C 6.69230769230769 24.50390625  7.03215144230769 23.8330078125  7.71183894230769 23.2998046875  C 8.39152644230769 22.7666015625  9.16706730769231 22.5  10.0384615384615 22.5  C 10.8169070512821 22.5  11.3833133012821 22.283203125  11.7376802884615 21.849609375  C 12.092047275641 21.416015625  12.2692307692308 20.8828125  12.2692307692308 20.25  C 12.2692307692308 19.65234375  12.1849959935897 19.1279296875  12.0165264423077 18.6767578125  C 11.8480568910256 18.2255859375  11.5430689102564 17.80078125  11.1015625 17.40234375  C 10.4857772435897 16.921875  9.93389423076923 16.365234375  9.44591346153846 15.732421875  C 8.13301282051282 15.673828125  6.88110977564103 15.4130859375  5.69020432692308 14.9501953125  C 4.49929887820513 14.4873046875  3.49429086538462 13.916015625  2.67518028846154 13.236328125  C 1.85606971153846 12.556640625  1.20542868589744 11.794921875  0.723257211538462 10.951171875  C 0.241085737179487 10.107421875  0 9.26953125  0 8.4375  L 0 6.1875  C 0 5.71875  0.162660256410256 5.3203125  0.487980769230769 4.9921875  C 0.813301282051282 4.6640625  1.20833333333333 4.5  1.67307692307692 4.5  L 6.69230769230769 4.5  L 6.69230769230769 2.8125  C 6.69230769230769 2.0390625  6.96534455128205 1.376953125  7.51141826923077 0.826171875000001  C 8.05749198717949 0.275390624999997  8.71394230769231 0  9.48076923076923 0  L 19.5192307692308 0  C 20.2860576923077 0  20.9425080128205 0.275390624999997  21.4885817307692 0.826171875000001  C 22.0346554487179 1.376953125  22.3076923076923 2.0390625  22.3076923076923 2.8125  L 22.3076923076923 4.5  L 27.3269230769231 4.5  C 27.7916666666667 4.5  28.1866987179487 4.6640625  28.5120192307692 4.9921875  Z " fill-rule="nonzero" fill="#f7ea75" stroke="none" transform="matrix(1 0 0 1 31 134 )" />
  </g>
</svg>